<svg width="30" height="30" viewBox="0 0 30 30" fill="none" xmlns="http://www.w3.org/2000/svg">
<g clip-path="url(#clip0_1_203)">
<path d="M25.9091 0H4.09091C1.83156 0 0 1.83156 0 4.09091V25.9091C0 28.1684 1.83156 30 4.09091 30H25.9091C28.1684 30 30 28.1684 30 25.9091V4.09091C30 1.83156 28.1684 0 25.9091 0Z" fill="white"/>
<path d="M10.8068 8.18182C10.8068 8.68751 10.6569 9.18184 10.3759 9.60231C10.095 10.0228 9.69565 10.3505 9.22845 10.544C8.76125 10.7375 8.24716 10.7882 7.75119 10.6895C7.25521 10.5909 6.79963 10.3473 6.44205 9.98976C6.08448 9.63218 5.84096 9.1766 5.74231 8.68063C5.64365 8.18465 5.69428 7.67056 5.8878 7.20337C6.08132 6.73617 6.40904 6.33685 6.8295 6.0559C7.24997 5.77495 7.74431 5.625 8.25 5.625C8.92811 5.625 9.57844 5.89438 10.0579 6.37387C10.5374 6.85337 10.8068 7.50371 10.8068 8.18182Z" fill="#FFC85E"/>
<path d="M10.2273 12.4432V23.7392C10.2277 23.8225 10.2117 23.9051 10.1801 23.9822C10.1486 24.0594 10.1021 24.1295 10.0433 24.1886C9.98452 24.2477 9.91465 24.2945 9.8377 24.3265C9.76076 24.3585 9.67824 24.375 9.59491 24.375H6.90002C6.81669 24.3752 6.73413 24.359 6.6571 24.3272C6.58007 24.2954 6.51008 24.2487 6.45115 24.1898C6.39223 24.1308 6.34553 24.0609 6.31374 23.9838C6.28196 23.9068 6.26571 23.8242 6.26593 23.7409V12.4432C6.26593 12.275 6.33274 12.1137 6.45165 11.9948C6.57057 11.8759 6.73185 11.8091 6.90002 11.8091H9.59491C9.76279 11.8095 9.92363 11.8765 10.0422 11.9954C10.1607 12.1143 10.2273 12.2753 10.2273 12.4432Z" fill="#FFC85E"/>
<path d="M24.3136 18.3239V23.792C24.3138 23.8687 24.2989 23.9446 24.2697 24.0154C24.2405 24.0862 24.1975 24.1506 24.1434 24.2047C24.0892 24.2589 24.0248 24.3019 23.954 24.3311C23.8832 24.3603 23.8073 24.3752 23.7307 24.375H20.8329C20.7563 24.3752 20.6804 24.3603 20.6096 24.3311C20.5387 24.3019 20.4744 24.2589 20.4202 24.2047C20.366 24.1506 20.3231 24.0862 20.2939 24.0154C20.2647 23.9446 20.2497 23.8687 20.25 23.792V18.4926C20.25 17.7017 20.4818 15.029 18.1824 15.029C16.4011 15.029 16.038 16.8579 15.9664 17.6795V23.792C15.9665 23.9452 15.9062 24.0922 15.7987 24.2013C15.6912 24.3103 15.5451 24.3728 15.392 24.375H12.5932C12.5167 24.375 12.441 24.3599 12.3703 24.3306C12.2997 24.3013 12.2355 24.2583 12.1815 24.2041C12.1275 24.15 12.0848 24.0857 12.0557 24.015C12.0265 23.9443 12.0117 23.8685 12.0119 23.792V12.3937C12.0117 12.3173 12.0265 12.2415 12.0557 12.1708C12.0848 12.1001 12.1275 12.0358 12.1815 11.9816C12.2355 11.9275 12.2997 11.8845 12.3703 11.8552C12.441 11.8259 12.5167 11.8108 12.5932 11.8108H15.392C15.5466 11.8108 15.6949 11.8722 15.8042 11.9815C15.9136 12.0909 15.975 12.2391 15.975 12.3937V13.379C16.6363 12.3869 17.6165 11.6216 19.7079 11.6216C24.3409 11.6216 24.3136 15.9477 24.3136 18.3239Z" fill="#FFC85E"/>
</g>
<defs>
<clipPath id="clip0_1_203">
<rect width="30" height="30" fill="white"/>
</clipPath>
</defs>
</svg>
